HIERARCHY
ROOT root
{
	OFFSET 0.000000 0.000000 0.000000
	CHANNELS 6 Xposition Yposition Zposition Zrotation Yrotation Xrotation
	JOINT lhip
	{
		OFFSET 0.058581 -0.082280 -0.017664
		CHANNELS 3 Zrotation Yrotation Xrotation
		JOINT lknee
		{
			OFFSET 0.043451 -0.386469 0.008037
			CHANNELS 3 Zrotation Yrotation Xrotation
			JOINT lankle
			{
				OFFSET -0.014790 -0.426874 -0.037428
				CHANNELS 3 Zrotation Yrotation Xrotation
				JOINT ltoe
				{
					OFFSET 0.041054 -0.060286 0.122042
					CHANNELS 3 Zrotation Yrotation Xrotation
					End Site
					{
						OFFSET 0.000000 0.000000 0.000000
					}
				}
			}
		}
	}
	JOINT rhip
	{
		OFFSET -0.060310 -0.090513 -0.013543
		CHANNELS 3 Zrotation Yrotation Xrotation
		JOINT rknee
		{
			OFFSET -0.043257 -0.383688 -0.004843
			CHANNELS 3 Zrotation Yrotation Xrotation
			JOINT rankle
			{
				OFFSET 0.019056 -0.420046 -0.034562
				CHANNELS 3 Zrotation Yrotation Xrotation
				JOINT rtoe
				{
					OFFSET -0.034840 -0.062106 0.130323
					CHANNELS 3 Zrotation Yrotation Xrotation
					End Site
					{
						OFFSET 0.000000 0.000000 0.000000
					}
				}
			}
		}
	}
	JOINT lowerback
	{
		OFFSET 0.004439 0.124404 -0.038385
		CHANNELS 3 Zrotation Yrotation Xrotation
		JOINT upperback
		{
			OFFSET 0.004488 0.137956 0.026820
			CHANNELS 3 Zrotation Yrotation Xrotation
			JOINT chest
			{
				OFFSET -0.002265 0.056032 0.002855
				CHANNELS 3 Zrotation Yrotation Xrotation
				JOINT lowerneck
				{
					OFFSET -0.013390 0.211636 -0.033468
					CHANNELS 3 Zrotation Yrotation Xrotation
					JOINT upperneck
					{
						OFFSET 0.010113 0.088937 0.050410
						CHANNELS 3 Zrotation Yrotation Xrotation
						End Site
						{
							OFFSET 0.000000 0.000000 0.000000
						}
					}
				}
				JOINT lclavicle
				{
					OFFSET 0.071702 0.114000 -0.018898
					CHANNELS 3 Zrotation Yrotation Xrotation
					JOINT lshoulder
					{
						OFFSET 0.122921 0.045205 -0.019046
						CHANNELS 3 Zrotation Yrotation Xrotation
						JOINT lelbow
						{
							OFFSET 0.255332 -0.015649 -0.022946
							CHANNELS 3 Zrotation Yrotation Xrotation
							JOINT lwrist
							{
								OFFSET 0.265709 0.012698 -0.007375
								CHANNELS 3 Zrotation Yrotation Xrotation
								End Site
								{
									OFFSET 0.000000 0.000000 0.000000
								}
							}
						}
					}
				}
				JOINT rclavicle
				{
					OFFSET -0.082954 0.112472 -0.023707
					CHANNELS 3 Zrotation Yrotation Xrotation
					JOINT rshoulder
					{
						OFFSET -0.113228 0.046853 -0.008472
						CHANNELS 3 Zrotation Yrotation Xrotation
						JOINT relbow
						{
							OFFSET -0.260127 -0.014369 -0.031269
							CHANNELS 3 Zrotation Yrotation Xrotation
							JOINT rwrist
							{
								OFFSET -0.269108 0.006794 -0.006027
								CHANNELS 3 Zrotation Yrotation Xrotation
								End Site
								{
									OFFSET 0.000000 0.000000 0.000000
								}
							}
						}
					}
				}
			}
		}
	}
}
MOTION
Frames: 10
Frame Time: 0.033333
-0.030120 0.271969 0.973827 93.893596 -0.394254 109.229404 5.245405 5.807218 -33.483384 -6.906920 8.469261 14.270652 -2.374097 0.743041 -0.773687 0.000000 -0.000000 0.000000 -6.723086 -9.476252 -37.986212 3.219785 -13.136582 19.925852 5.673280 -4.662728 1.481508 0.000000 -0.000000 0.000000 2.637455 -1.036757 22.910581 3.052610 -3.078963 -5.933699 1.730101 -0.692941 -7.050986 -2.353805 3.354468 -23.956471 -1.449356 -8.132547 2.325911 -29.449730 -22.178087 1.375997 -34.250297 -26.284288 9.924484 2.500858 -27.906263 12.690945 -26.209497 -7.609538 11.526809 33.620026 21.980013 7.760590 27.909014 24.365163 8.732666 -8.108313 24.560953 6.750599 25.809420 0.437742 9.561816 
-0.030040 0.271851 0.973770 93.855829 -0.437206 109.318277 5.131031 5.833917 -33.487019 -6.847841 8.361729 14.100421 -2.605360 0.827426 -0.696930 0.000000 -0.000000 0.000000 -6.669126 -9.567134 -38.119196 3.125239 -13.123172 19.973805 5.726320 -4.476834 1.557468 0.000000 -0.000000 0.000000 2.649492 -0.956566 23.070879 3.035435 -3.159807 -6.006248 1.677146 -0.729249 -7.015411 -2.275561 3.310057 -24.116110 -1.481899 -8.198329 1.797460 -29.501885 -22.031470 1.234309 -34.439754 -26.342225 10.133248 2.716574 -27.683057 12.982963 -26.453592 -7.725490 11.494659 33.589687 21.911731 7.473638 28.044751 24.526727 8.857583 -8.230521 24.295476 6.953188 25.949985 0.510680 9.290883 
-0.030124 0.271469 0.973558 93.852296 -0.402742 109.472356 5.166708 5.803938 -33.674874 -6.761225 8.400978 14.136085 -2.632467 0.812046 -0.707810 0.000000 -0.000000 0.000000 -6.578899 -9.538682 -38.296602 3.071392 -13.179028 19.970352 5.724035 -4.450908 1.576891 0.000000 -0.000000 0.000000 2.627044 -0.972208 23.031627 3.020026 -3.159774 -5.926920 1.669370 -0.729733 -6.967162 -2.242633 3.232740 -24.251392 -1.401474 -8.215318 1.127599 -29.567314 -21.907751 1.059853 -34.493692 -26.368647 10.240068 2.646429 -27.646611 13.094056 -26.493287 -7.566101 11.365290 33.572798 21.892769 7.302834 28.022485 24.677542 8.854517 -8.240530 24.152563 6.821013 25.977796 0.389602 9.092187 
-0.030388 0.270951 0.973285 93.964315 -0.366738 109.777424 5.274149 5.691280 -34.045061 -6.731697 8.476971 14.125657 -2.764355 0.805663 -0.562864 0.000000 -0.000000 0.000000 -6.526244 -9.515960 -38.594554 3.099220 -13.296505 19.928544 5.729260 -4.496350 1.618726 0.000000 -0.000000 0.000000 2.641086 -1.097881 22.998544 3.027054 -3.149953 -6.015142 1.653140 -0.801078 -6.889471 -2.142862 3.351169 -24.489974 -1.421664 -8.100966 0.509802 -29.558399 -21.686645 0.922156 -34.549955 -26.249198 10.404474 2.587975 -27.932042 13.183968 -26.508418 -7.614260 11.263781 33.487327 21.734445 7.021744 28.125620 24.937964 8.959538 -8.255755 24.091671 6.621063 26.061324 0.241257 8.738695 
-0.030260 0.270695 0.973189 93.912051 -0.375644 109.836006 5.266325 5.686795 -34.055121 -6.705204 8.513192 14.075991 -2.751262 0.805209 -0.580576 0.000000 -0.000000 0.000000 -6.501919 -9.544004 -38.633367 3.121250 -13.274528 19.876131 5.738182 -4.473566 1.673505 0.000000 -0.000000 0.000000 2.588397 -1.075126 23.074623 2.995948 -3.188134 -5.942952 1.675079 -0.787054 -6.927355 -2.116894 3.365661 -24.538253 -1.368322 -8.084092 -0.007468 -29.572325 -21.611129 0.906137 -34.514614 -26.119739 10.466782 2.550050 -28.238644 13.394391 -26.569805 -7.578787 11.270154 33.465961 21.747903 6.925660 28.087020 24.914283 8.950953 -8.312491 24.139353 6.526097 26.050380 0.173593 8.843945 
-0.030072 0.270290 0.973157 93.849411 -0.416354 109.931495 5.165637 5.796775 -34.073131 -6.683768 8.498158 13.982428 -2.773928 0.698946 -0.545303 0.000000 -0.000000 0.000000 -6.487382 -9.534088 -38.711455 3.062609 -13.258121 19.836003 5.807760 -4.431196 1.739761 0.000000 -0.000000 0.000000 2.516793 -1.051452 23.236179 2.940482 -3.213743 -5.952910 1.704243 -0.759570 -6.971286 -2.112059 3.380594 -24.482525 -1.202966 -7.957411 -0.761595 -29.567994 -21.513097 0.806606 -34.472976 -26.061786 10.543309 2.319534 -28.507003 13.750924 -26.641013 -7.505217 11.220822 33.323646 21.724696 6.787839 28.154617 24.922379 8.967328 -8.407527 24.152528 6.466520 25.987362 0.207109 8.960250 
-0.030285 0.269977 0.973112 93.931399 -0.413534 110.091088 5.150339 5.796785 -34.268692 -6.657549 8.472907 13.981380 -2.845327 0.618220 -0.513270 0.000000 -0.000000 0.000000 -6.368145 -9.461347 -38.887030 2.869173 -13.164951 19.799454 5.863454 -4.541967 1.782127 0.000000 -0.000000 0.000000 2.494189 -1.032763 23.294978 2.961311 -3.236688 -5.978983 1.758470 -0.798013 -6.938778 -1.992776 3.318633 -24.492871 -1.051070 -7.955360 -1.194997 -29.512683 -21.585018 0.816846 -34.489371 -26.061341 10.646793 2.279787 -28.557800 13.825727 -26.678110 -7.492236 11.028732 33.214895 21.734825 6.567338 28.090286 24.870987 8.981504 -8.434552 24.167144 6.378005 25.944274 0.276531 9.051068 
-0.030508 0.269718 0.973038 93.965286 -0.414802 110.172780 5.108817 5.838753 -34.371695 -6.623921 8.430609 13.976773 -2.891168 0.560734 -0.522770 0.000000 -0.000000 0.000000 -6.385022 -9.494394 -38.936824 2.930901 -13.272236 19.716318 5.887717 -4.460586 1.839194 0.000000 -0.000000 0.000000 2.481481 -1.004679 23.397206 2.934230 -3.263819 -5.888254 1.796339 -0.792308 -6.903595 -1.863762 3.325209 -24.392171 -0.869229 -7.859600 -1.725147 -29.486812 -21.712425 0.731819 -34.473837 -26.117615 10.666805 2.282774 -28.518227 13.695106 -26.581570 -7.461322 11.134378 33.112773 21.786437 6.387795 27.987794 24.882237 8.887645 -8.460339 24.144093 6.244348 26.023344 0.176348 9.095337 
-0.030849 0.269490 0.972764 94.039508 -0.407573 110.230590 5.089889 5.847457 -34.503553 -6.597583 8.373565 14.038601 -2.908881 0.496141 -0.443324 0.000000 -0.000000 0.000000 -6.386067 -9.512255 -38.978375 2.956204 -13.350766 19.671040 5.893074 -4.453862 1.889519 0.000000 -0.000000 0.000000 2.483426 -1.042236 23.517509 2.914778 -3.281816 -5.827848 1.799531 -0.753267 -6.799681 -1.655938 3.287554 -24.226141 -0.614375 -7.862485 -2.052076 -29.383916 -21.843561 0.432447 -34.531098 -26.333487 10.787777 2.162929 -28.178998 13.658644 -26.509721 -7.481071 11.195763 32.923099 21.906258 6.207012 27.989461 24.988855 8.870133 -8.516695 23.956182 6.043828 25.866373 0.133513 9.105655 
-0.031549 0.269307 0.972528 94.095739 -0.357538 110.401559 5.153282 5.846596 -34.735174 -6.605322 8.447710 14.038538 -2.921241 0.449707 -0.397183 0.000000 -0.000000 0.000000 -6.320382 -9.551472 -39.184362 2.985202 -13.445806 19.630226 5.931212 -4.384638 2.015406 0.000000 -0.000000 0.000000 2.486555 -1.029683 23.637819 2.938199 -3.280487 -5.818965 1.844149 -0.739370 -6.697107 -1.515146 3.285956 -23.788833 -0.345231 -7.843343 -2.159038 -29.231913 -21.974044 0.239869 -34.675020 -26.665811 10.780472 2.293299 -27.889446 13.298387 -26.478303 -7.323278 11.226174 32.740429 21.981531 6.012712 28.017034 25.137830 8.804442 -8.634401 23.787709 5.802450 25.936293 -0.009120 9.135174 
